<?xml version="1.0" encoding="utf-8"?>
<!-- Generator: Adobe Illustrator 22.0.1, SVG Export Plug-In . SVG Version: 6.00 Build 0)  -->
<svg version="1.1" id="Capa_1" xmlns="http://www.w3.org/2000/svg" xmlns:xlink="http://www.w3.org/1999/xlink" x="0px" y="0px"
	 viewBox="0 0 254.2 254.2" style="enable-background:new 0 0 254.2 254.2;" xml:space="preserve">
<style type="text/css">
	.st0{fill:#FFFFFF;}
</style>
<g>
	<path class="st0" d="M211.7,137.1c-4.1,0-7.5,3.4-7.5,7.5v77.1h-41.4v-77.1c0-4.1-3.4-7.5-7.5-7.5H98.9c-4.1,0-7.5,3.4-7.5,7.5
		v77.1H50v-77.1c0-4.1-3.4-7.5-7.5-7.5s-7.5,3.4-7.5,7.5v84.6c0,4.1,3.4,7.5,7.5,7.5h56.4h56.4h56.4c4.1,0,7.5-3.4,7.5-7.5v-84.6
		C219.2,140.5,215.8,137.1,211.7,137.1z M106.4,221.7v-69.6h41.4v69.6L106.4,221.7L106.4,221.7z"/>
	<path class="st0" d="M252,139.3L132.4,19.7c-2.9-2.9-7.7-2.9-10.6,0L2.2,139.3c-2.9,2.9-2.9,7.7,0,10.6c2.9,2.9,7.7,2.9,10.6,0
		L127.1,35.6l114.3,114.3c1.5,1.5,3.4,2.2,5.3,2.2c1.9,0,3.8-0.7,5.3-2.2C254.9,147,254.9,142.2,252,139.3z"/>
</g>
</svg>
